<?xml version="1.0" standalone="no"?>
<!DOCTYPE svg PUBLIC "-//W3C//DTD SVG 20010904//EN"
 "http://www.w3.org/TR/2001/REC-SVG-20010904/DTD/svg10.dtd">
<svg version="1.0" xmlns="http://www.w3.org/2000/svg"
 width="700.000000pt" height="700.000000pt" viewBox="0 0 700.000000 700.000000"
 preserveAspectRatio="xMidYMid meet">
<metadata>
Created by potrace 1.11, written by Peter Selinger 2001-2013
</metadata>
<g transform="translate(0.000000,700.000000) scale(0.100000,-0.100000)"
fill="#000000" stroke="none">
<path d="M650 6985 c-337 -68 -587 -329 -639 -665 -9 -56 -11 -778 -9 -2865 3
-3056 -2 -2798 58 -2957 69 -186 264 -374 458 -445 153 -56 -13 -53 2982 -53
2995 0 2829 -3 2982 53 194 71 389 259 458 445 60 158 55 -92 55 3002 0 2607
-1 2830 -17 2885 -60 216 -171 372 -345 485 -73 48 -133 75 -243 108 -51 16
-267 17 -2865 19 -2292 1 -2822 -1 -2875 -12z m1785 -2075 c344 -33 594 -161
735 -376 88 -135 139 -353 126 -536 -31 -409 -308 -685 -765 -762 -52 -9 -96
-18 -98 -20 -2 -2 14 -25 35 -52 21 -27 211 -274 421 -549 211 -275 391 -508
399 -517 14 -17 -2 -18 -326 -18 l-341 0 -413 565 -413 564 -87 1 -88 0 0
-565 0 -565 -280 0 -280 0 0 1420 0 1420 633 0 c357 0 680 -5 742 -10z m3485
-250 l0 -260 -770 0 -770 0 0 -315 0 -315 735 0 735 0 0 -260 0 -260 -735 0
-735 0 2 -327 3 -328 778 -3 777 -2 0 -255 0 -255 -1060 0 -1060 0 0 1420 0
1420 1050 0 1050 0 0 -260z"/>
<path d="M1620 4049 l0 -350 393 4 c317 3 402 7 444 19 121 37 194 94 236 187
28 61 30 225 4 284 -28 64 -73 112 -136 146 -104 55 -154 61 -568 61 l-373 0
0 -351z"/>
</g>
</svg>
