<?xml version="1.0" encoding="utf-8"?>
<!-- Generator: Adobe Illustrator 23.0.6, SVG Export Plug-In . SVG Version: 6.00 Build 0)  -->
<svg version="1.1" id="BECOUR_REact" xmlns="http://www.w3.org/2000/svg" xmlns:xlink="http://www.w3.org/1999/xlink" x="0px"
	 y="0px" viewBox="0 0 550.96 198.2" style="enable-background:new 0 0 550.96 198.2;" xml:space="preserve">
<style type="text/css">
	.st0{display:none;fill:#181A31;}
	.st1{fill:#FFFFFF;}
	.st2{fill:#56C16F;}
</style>
<rect x="-237.36" y="-142.9" class="st0" width="1024" height="484"/>
<g id="BECOUR_Logo">
	<g>
		<path class="st1" d="M11.68,23.03c6.66,0,10.84,2.47,10.84,7.92c0,2.88-1.76,5.19-4.14,6.06c2.61,0.88,4.76,3.33,4.76,6.41
			c0,5.49-3.9,8.19-10.76,8.19H0V23.03H11.68z M5.7,28.05v6.68h5.84c2.84,0,5.04-0.59,5.04-3.37c0-2.69-2.25-3.31-5.06-3.31H5.7z
			 M5.7,39.73v6.86l6.39,0.02c3.14,0,5.12-0.74,5.12-3.47c0-2.67-1.98-3.41-5.12-3.41H5.7z"/>
		<path class="st1" d="M56.56,51.61H35.2V23.03h21.19v5.23H40.9v6.33h14.78v5.23H40.9v6.57h15.66V51.61z"/>
		<path class="st1" d="M95.05,28.91l-4.9,3c-1.61-2.47-4.21-3.94-7.39-3.94c-5.19,0-9.02,3.8-9.02,9.35
			c0.02,5.74,3.98,9.35,9.02,9.35c3.16,0,5.74-1.43,7.45-3.92l4.65,3.35c-2.53,3.72-6.84,6.04-12.07,6.04
			c-8.8,0-15.01-6.23-15.01-14.82c0-8.59,6.21-14.82,15.01-14.82C88.06,22.5,92.72,24.9,95.05,28.91z"/>
		<path class="st1" d="M138.93,14.82c0,8.53-6.23,14.82-15.03,14.82c-8.8,0-15.01-6.29-15.01-14.82C108.89,6.29,115.1,0,123.9,0
			C132.7,0,138.93,6.29,138.93,14.82z M114.84,14.82c0,5.55,3.82,9.35,9.06,9.35c5.27,0,9.06-3.8,9.06-9.35
			c0-5.55-3.8-9.35-9.06-9.35C118.65,5.47,114.84,9.27,114.84,14.82z"/>
		<path class="st1" d="M171.37,40.2c0,7.9-5.04,11.92-12.31,11.92c-7.27,0-12.31-4.02-12.31-11.92V23.03h5.72v16.88
			c0,4.7,2.65,6.76,6.59,6.76c3.94,0,6.59-2.06,6.59-6.76V23.03h5.72V40.2z"/>
		<path class="st1" d="M196.57,23.03c6.82,0,10.47,3.23,10.47,8.7c0,4.7-3.27,7.9-8.76,8.43l8.8,11.45h-6.9l-8.33-11.37h-1.67v11.37
			h-5.7V23.03H196.57z M190.18,28.27v7h6.29c3.1,0,4.72-1.14,4.72-3.55c0-2.37-1.69-3.45-4.72-3.45H190.18z"/>
	</g>
	<g>
		<path class="st1" d="M197.42,100.3c-6.65,0-10.84-2.47-10.84-7.92c0-2.88,1.76-5.19,4.14-6.06c-2.61-0.88-4.76-3.33-4.76-6.41
			c0-5.49,3.9-8.19,10.76-8.19h12.37v28.58H197.42z M203.4,83.6v-6.86l-6.39-0.02c-3.14,0-5.12,0.74-5.12,3.47
			c0,2.67,1.98,3.41,5.12,3.41H203.4z M203.4,95.27V88.6h-5.84c-2.84,0-5.04,0.59-5.04,3.37c0,2.69,2.25,3.31,5.06,3.31H203.4z"/>
		<path class="st1" d="M152.54,71.72h21.35v28.58H152.7v-5.23h15.49v-6.33h-14.78v-5.23h14.78v-6.57h-15.66V71.72z"/>
		<path class="st1" d="M114.05,94.42l4.9-3c1.61,2.47,4.21,3.94,7.39,3.94c5.19,0,9.02-3.8,9.02-9.35
			c-0.02-5.74-3.98-9.35-9.02-9.35c-3.16,0-5.74,1.43-7.45,3.92l-4.65-3.35c2.53-3.72,6.84-6.04,12.07-6.04
			c8.8,0,15.01,6.23,15.01,14.82c0,8.59-6.21,14.82-15.01,14.82C121.03,100.83,116.38,98.42,114.05,94.42z"/>
		<path class="st1" d="M74.09,86.01c0-8.53,6.23-14.82,15.03-14.82c8.8,0,15.01,6.29,15.01,14.82c0,8.53-6.21,14.82-15.01,14.82
			C80.32,100.83,74.09,94.54,74.09,86.01z M98.18,86.01c0-5.55-3.82-9.35-9.06-9.35c-5.27,0-9.06,3.8-9.06,9.35
			c0,5.55,3.8,9.35,9.06,9.35C94.36,95.36,98.18,91.56,98.18,86.01z"/>
		<path class="st1" d="M37.72,83.13c0-7.9,5.04-11.92,12.31-11.92s12.31,4.02,12.31,11.92v17.17h-5.72V83.41
			c0-4.7-2.65-6.76-6.59-6.76c-3.94,0-6.59,2.06-6.59,6.76v16.88h-5.72V83.13z"/>
		<path class="st1" d="M12.52,100.3c-6.82,0-10.47-3.23-10.47-8.7c0-4.7,3.27-7.9,8.76-8.43l-8.8-11.45h6.9l8.33,11.37h1.67V71.72
			h5.7v28.58H12.52z M18.91,95.05v-7h-6.29c-3.1,0-4.72,1.14-4.72,3.55c0,2.37,1.69,3.45,4.72,3.45H18.91z"/>
	</g>
	<g>
		<path class="st1" d="M11.68,120.4c6.66,0,10.84,2.47,10.84,7.92c0,2.88-1.76,5.19-4.14,6.06c2.61,0.88,4.76,3.33,4.76,6.41
			c0,5.49-3.9,8.19-10.76,8.19H0V120.4H11.68z M5.7,125.43v6.68h5.84c2.84,0,5.04-0.59,5.04-3.37c0-2.7-2.25-3.31-5.06-3.31H5.7z
			 M5.7,137.1v6.86l6.39,0.02c3.14,0,5.12-0.74,5.12-3.47c0-2.67-1.98-3.41-5.12-3.41H5.7z"/>
		<path class="st1" d="M56.56,148.98H35.2V120.4h21.19v5.23H40.9v6.33h14.78v5.23H40.9v6.57h15.66V148.98z"/>
		<path class="st1" d="M95.05,126.28l-4.9,3c-1.61-2.47-4.21-3.94-7.39-3.94c-5.19,0-9.02,3.8-9.02,9.35
			c0.02,5.74,3.98,9.35,9.02,9.35c3.16,0,5.74-1.43,7.45-3.92l4.65,3.35c-2.53,3.72-6.84,6.04-12.07,6.04
			c-8.8,0-15.01-6.23-15.01-14.82c0-8.6,6.21-14.82,15.01-14.82C88.06,119.87,92.72,122.28,95.05,126.28z"/>
		<path class="st1" d="M135.01,134.69c0,8.53-6.23,14.82-15.03,14.82c-8.8,0-15.01-6.29-15.01-14.82c0-8.53,6.21-14.82,15.01-14.82
			C128.78,119.87,135.01,126.16,135.01,134.69z M110.92,134.69c0,5.55,3.82,9.35,9.06,9.35c5.27,0,9.06-3.8,9.06-9.35
			c0-5.55-3.8-9.35-9.06-9.35C114.73,125.34,110.92,129.14,110.92,134.69z"/>
		<path class="st1" d="M171.37,137.57c0,7.9-5.04,11.92-12.31,11.92c-7.27,0-12.31-4.02-12.31-11.92V120.4h5.72v16.88
			c0,4.7,2.65,6.76,6.59,6.76c3.94,0,6.59-2.06,6.59-6.76V120.4h5.72V137.57z"/>
		<path class="st1" d="M196.57,120.4c6.82,0,10.47,3.23,10.47,8.7c0,4.7-3.27,7.9-8.76,8.43l8.8,11.45h-6.9l-8.33-11.37h-1.67v11.37
			h-5.7V120.4H196.57z M190.18,125.65v7h6.29c3.1,0,4.72-1.14,4.72-3.55c0-2.37-1.69-3.45-4.72-3.45H190.18z"/>
	</g>
	<g>
		<path class="st1" d="M197.42,197.67c-6.65,0-10.84-2.47-10.84-7.92c0-2.88,1.76-5.19,4.14-6.06c-2.61-0.88-4.76-3.33-4.76-6.41
			c0-5.49,3.9-8.19,10.76-8.19h12.37v28.58H197.42z M203.4,180.97v-6.86l-6.39-0.02c-3.14,0-5.12,0.73-5.12,3.47
			c0,2.67,1.98,3.41,5.12,3.41H203.4z M203.4,192.65v-6.68h-5.84c-2.84,0-5.04,0.59-5.04,3.37c0,2.69,2.25,3.31,5.06,3.31H203.4z"/>
		<path class="st1" d="M152.54,169.09h21.35v28.58H152.7v-5.23h15.49v-6.33h-14.78v-5.23h14.78v-6.57h-15.66V169.09z"/>
		<path class="st1" d="M114.05,191.79l4.9-3c1.61,2.47,4.21,3.94,7.39,3.94c5.19,0,9.02-3.8,9.02-9.35
			c-0.02-5.74-3.98-9.35-9.02-9.35c-3.16,0-5.74,1.43-7.45,3.92l-4.65-3.35c2.53-3.72,6.84-6.04,12.07-6.04
			c8.8,0,15.01,6.23,15.01,14.82c0,8.59-6.21,14.82-15.01,14.82C121.03,198.2,116.38,195.79,114.05,191.79z"/>
		<path class="st1" d="M74.09,183.38c0-8.53,6.23-14.82,15.03-14.82c8.8,0,15.01,6.29,15.01,14.82c0,8.53-6.21,14.82-15.01,14.82
			C80.32,198.2,74.09,191.92,74.09,183.38z M98.18,183.38c0-5.55-3.82-9.35-9.06-9.35c-5.27,0-9.06,3.8-9.06,9.35
			c0,5.55,3.8,9.35,9.06,9.35C94.36,192.73,98.18,188.93,98.18,183.38z"/>
		<path class="st1" d="M37.72,180.5c0-7.9,5.04-11.92,12.31-11.92s12.31,4.02,12.31,11.92v17.17h-5.72v-16.88
			c0-4.7-2.65-6.76-6.59-6.76c-3.94,0-6.59,2.06-6.59,6.76v16.88h-5.72V180.5z"/>
		<path class="st1" d="M12.52,197.67c-6.82,0-10.47-3.23-10.47-8.7c0-4.7,3.27-7.9,8.76-8.43l-8.8-11.45h6.9l8.33,11.37h1.67v-11.37
			h5.7v28.58H12.52z M18.91,192.43v-7h-6.29c-3.1,0-4.72,1.14-4.72,3.55c0,2.37,1.69,3.45,4.72,3.45H18.91z"/>
	</g>
</g>
<rect id="Line" x="274.87" y="23.12" class="st2" width="3" height="174.65"/>
<g id="act">
	<path id="a" class="st1" d="M464.43,124.59h-10.55v-4.43c-2.61,3.23-6.5,5.46-12,5.46c-11.05,0-19.4-9.06-19.4-21.1
		s8.36-21.1,19.4-21.1c5.5,0,9.35,2.23,12,5.5V84.5h10.55V124.59z M433.52,104.52c0,6.12,4.01,11.05,10.34,11.05
		c6.16,0,10.34-4.72,10.34-11.05c0-6.33-4.18-11.05-10.34-11.05C437.54,93.48,433.52,98.4,433.52,104.52z"/>
	<path id="c" class="st1" d="M510.67,90.99l-7.78,6.5c-2.44-2.61-5.05-4.01-8.56-4.01c-5.59,0-10.05,4.39-10.05,11.05
		c0,6.7,4.43,11.05,10.01,11.05c3.48,0,6.45-1.57,8.73-4.05l7.69,6.58c-3.76,4.84-9.39,7.53-16.09,7.53
		c-12.78,0-21.35-8.94-21.35-21.1c0-12.12,8.56-21.1,21.35-21.1C501.32,83.42,506.99,86.15,510.67,90.99z"/>
	<path id="t" class="st1" d="M547.99,94.1h-14.52v14.64c0,5.01,2.65,6.83,6,6.83c2.56,0,5.34-1.28,7.53-2.61l3.97,8.44
		c-3.52,2.4-7.57,4.22-13.28,4.22c-9.93,0-15.02-5.63-15.02-16.01V94.1h-7.74v-9.6h7.74V72.58h10.8V84.5h14.52V94.1z"/>
</g>
<g id="RE">
	<path class="st2" d="M361.5,83.42c10.07,0,15.46,4.76,15.46,12.84c0,6.93-4.83,11.66-12.94,12.45l12.99,16.91h-10.19l-12.3-16.79
		h-2.47v16.79h-8.41v-42.2H361.5z M352.06,91.17v10.34h9.28c4.58,0,6.96-1.68,6.96-5.24c0-3.5-2.5-5.1-6.96-5.1H352.06z"/>
	<path class="st2" d="M416.2,125.63h-31.53v-42.2h31.29v7.72h-22.88v9.35h21.82v7.72h-21.82v9.71h23.12V125.63z"/>
</g>
</svg>
